<?xml version="1.0" standalone="no"?>
<!DOCTYPE svg PUBLIC "-//W3C//DTD SVG 20010904//EN"
 "http://www.w3.org/TR/2001/REC-SVG-20010904/DTD/svg10.dtd">
<svg version="1.0" xmlns="http://www.w3.org/2000/svg"
 width="512.000000pt" height="512.000000pt" viewBox="0 0 512.000000 512.000000"
 preserveAspectRatio="xMidYMid meet">
<metadata>
Created by potrace 1.14, written by Peter Selinger 2001-2017
</metadata>
<g transform="translate(0.000000,512.000000) scale(0.100000,-0.100000)"
fill="#000000" stroke="none">
<path d="M425 5100 c-204 -55 -362 -218 -410 -424 -21 -87 -21 -4137 0 -4232
40 -185 187 -347 376 -416 l64 -23 2080 -2 c2299 -3 2137 -7 2274 62 130 65
245 201 288 342 17 55 18 165 18 2158 l0 2100 -28 74 c-15 41 -34 82 -42 91
-8 9 -15 22 -15 29 0 17 -139 154 -176 174 -78 41 -124 60 -179 72 -49 11
-442 13 -2120 14 -1986 0 -2062 -1 -2130 -19z m967 -850 c188 -51 326 -241
312 -432 -9 -115 -52 -207 -136 -289 -183 -178 -499 -141 -640 76 -113 173
-92 387 52 534 105 107 265 150 412 111z m2572 -4 c67 -20 162 -82 202 -132
136 -171 129 -413 -15 -562 -172 -177 -438 -182 -609 -13 -169 168 -169 437 0
602 113 110 269 149 422 105z m-1291 -1277 c151 -41 269 -166 301 -323 31
-147 -14 -288 -126 -397 -159 -154 -424 -150 -586 10 -60 60 -96 125 -115 208
-72 310 217 585 526 502z m-1278 -1280 c214 -58 348 -283 298 -502 -42 -187
-198 -319 -388 -330 -122 -7 -239 38 -326 125 -169 171 -164 437 13 609 102
99 257 137 403 98z m2569 -3 c67 -20 162 -82 202 -132 136 -171 129 -413 -15
-562 -172 -177 -438 -182 -609 -13 -169 168 -169 437 0 602 113 110 269 149
422 105z"/>
</g>
</svg>
